<?xml version="1.0" standalone="no"?>
<!DOCTYPE svg PUBLIC "-//W3C//DTD SVG 20010904//EN"
 "http://www.w3.org/TR/2001/REC-SVG-20010904/DTD/svg10.dtd">
<svg version="1.0" xmlns="http://www.w3.org/2000/svg"
 width="900.000000pt" height="720.000000pt" viewBox="0 0 900.000000 720.000000"
 preserveAspectRatio="xMidYMid meet">

<g transform="translate(0.000000,720.000000) scale(0.100000,-0.100000)"
fill="#000000" stroke="none">
<path d="M80 3600 c0 -1886 0 -3433 0 -3437 0 -5 244 -8 543 -8 l542 0 3 1483
2 1482 1119 0 1120 0 6 23 c4 12 26 67 50 122 23 55 62 147 85 205 59 144 167
400 257 610 41 96 77 180 79 185 3 7 -452 9 -1356 8 -748 -2 -1360 1 -1360 5
-1 4 -2 363 -3 797 l-2 790 1702 3 1702 2 7 23 c9 29 89 223 176 427 53 125
247 584 295 698 4 9 -496 12 -2481 12 l-2486 0 0 -3430z"/>
<path d="M5818 6918 c-60 -146 -237 -569 -322 -770 -54 -127 -64 -161 -57
-180 13 -30 215 -543 248 -628 14 -36 34 -84 44 -107 11 -23 19 -45 19 -48 0
-3 20 -54 44 -113 25 -59 106 -262 181 -452 75 -190 170 -428 210 -530 40
-102 108 -273 150 -380 42 -107 94 -238 115 -290 54 -131 200 -501 200 -506 0
-2 -118 -5 -261 -6 l-262 -3 -69 -165 c-38 -91 -94 -223 -123 -295 -30 -71
-68 -164 -85 -205 -32 -75 -92 -220 -156 -378 -19 -46 -34 -87 -34 -93 0 -5
281 -9 735 -9 491 0 735 -3 735 -10 0 -6 23 -65 51 -133 87 -211 219 -538 259
-642 20 -51 280 -699 327 -812 4 -10 134 -13 604 -13 329 0 599 4 599 8 0 10
-24 70 -145 362 -101 245 -138 335 -260 635 -41 99 -93 225 -116 280 -23 55
-61 147 -84 205 -24 58 -64 155 -89 215 -26 61 -63 151 -82 200 -19 50 -63
155 -96 235 -33 80 -84 204 -113 275 -30 72 -72 175 -95 230 -23 55 -75 181
-115 280 -40 99 -94 232 -120 295 -46 113 -85 209 -270 665 -194 477 -277 680
-415 1015 -151 367 -236 575 -385 945 -105 260 -210 518 -315 775 -39 96 -78
194 -87 218 l-15 42 -152 0 -152 0 -46 -112z"/>
<path d="M4984 4964 c-8 -21 -24 -57 -34 -79 -10 -22 -55 -128 -100 -235 -45
-107 -95 -225 -111 -262 -35 -80 -181 -426 -313 -743 -53 -126 -105 -250 -116
-275 -65 -151 -90 -210 -145 -345 -34 -82 -113 -269 -175 -415 -62 -146 -131
-312 -155 -370 -81 -199 -113 -275 -174 -420 -34 -80 -73 -172 -87 -205 -14
-33 -34 -80 -44 -105 -47 -108 -284 -679 -334 -801 -30 -74 -84 -204 -121
-289 -37 -85 -78 -181 -90 -213 l-24 -57 604 0 604 0 19 52 c17 45 83 202 162
388 11 25 60 144 111 265 50 121 97 234 104 250 17 38 37 84 90 215 51 125
192 462 240 575 19 44 64 152 100 240 94 227 164 395 180 430 15 34 221 526
300 715 29 69 67 159 84 201 l33 76 -80 199 c-79 197 -223 553 -329 814 -30
74 -81 199 -112 278 -32 78 -61 145 -64 149 -4 3 -14 -11 -23 -33z"/>
</g>
</svg>
